<svg xmlns="http://www.w3.org/2000/svg" viewBox="0 0 64 64" width="64" height="64">
  <defs>
    <linearGradient id="e" x1="20" y1="56" x2="46" y2="10" gradientUnits="userSpaceOnUse">
      <stop offset="0" stop-color="#cf3d18"/><stop offset=".55" stop-color="#f36a21"/><stop offset="1" stop-color="#ffc46a"/>
    </linearGradient>
    <linearGradient id="i" x1="0" y1="0" x2="64" y2="64" gradientUnits="userSpaceOnUse">
      <stop offset="0" stop-color="#26272d"/><stop offset="1" stop-color="#0c0d0f"/>
    </linearGradient>
  </defs>
  <rect x="2" y="2" width="60" height="60" rx="16" fill="url(#i)"/>
  <path d="M35 9c1 8-3 12-8 17-4 4-7 8-7 14a12 12 0 0 0 24 0c0-5-2-9-5-13 .5 4-.5 7-3 9 1-7-2-13-8-18 3-2 5-5 7-9Z" fill="url(#e)"/>
  <path d="M32 32c-3 4-5 7-5 10a5 5 0 0 0 10 0c0-2-1-4-2-6 0 2-1 3-2 4 .5-3 0-5-1-8Z" fill="#0c0d0f" opacity=".92"/>
</svg>
